<svg id="Calque_1" data-name="Calque 1" xmlns="http://www.w3.org/2000/svg" xmlns:xlink="http://www.w3.org/1999/xlink" viewBox="0 0 824.16 1112.53"><defs><style>.cls-1{fill:url(#Dégradé_sans_nom_7);}.cls-2{fill:#556aed;}.cls-3{fill:#ede83e;}</style><linearGradient id="Dégradé_sans_nom_7" x1="204.39" y1="619.75" x2="619.72" y2="204.43" gradientUnits="userSpaceOnUse"><stop offset="0" stop-color="#9ea9f0"/><stop offset="1" stop-color="#556aed"/></linearGradient></defs><path class="cls-1" d="M620.3,205C506.56,90.91,319.66,90.08,205.72,203.15c-105,104.19-114.86,269.47-29.13,384.49l260-260-22.41-22.17L369.45,350.2a18.29,18.29,0,0,1-25.86-25.86l57.6-57.6a18.28,18.28,0,0,1,25.78-.07l57.28,56.65a18.32,18.32,0,0,1,5.43,13v64.81H552a18.28,18.28,0,1,1,0,36.56H471.39a18.28,18.28,0,0,1-18.28-18.28V398.09l-44.37,44.37,58.43,58.44a18.29,18.29,0,0,1-9.46,30.88L360,550.66a18.1,18.1,0,0,1-3.49.34,18.29,18.29,0,0,1-3.45-36.24L417,502.41,365.25,450.7,200.34,615.61c1.14,1.19,2.29,2.36,3.45,3.53C317.4,733.18,504.4,734,618.45,621,733.49,507,734.32,319.39,620.3,205ZM384,208.71,313,279.77l-37.69,37.69a3.9,3.9,0,0,0-1,3.7c2.54,9.94-.6,21.88-8.85,31.39a2.39,2.39,0,0,1-.22.23l-48.9,48.91a3.81,3.81,0,0,1-5.39-5.39L257.24,350a3.82,3.82,0,0,0,0-5.4l-.72-.71a3.81,3.81,0,0,0-5.39,0l-46.32,46.32a3.81,3.81,0,0,1-5.39,0h0a3.81,3.81,0,0,1,0-5.39l46.32-46.32a3.81,3.81,0,0,0,0-5.39l-.84-.85a3.81,3.81,0,0,0-5.39,0l-46.33,46.32a3.81,3.81,0,0,1-5.39,0h0a3.81,3.81,0,0,1,0-5.39l46.32-46.32a3.81,3.81,0,0,0,0-5.39l-.77-.77a3.81,3.81,0,0,0-5.39,0L181.63,367a3.81,3.81,0,0,1-5.39-5.39l48.9-48.91.24-.22c10.44-9.08,23.88-11.89,34.31-7.87a3.85,3.85,0,0,0,4.15-.82l53.47-53.47,54.16-54.16c4.26-4.26,10.51-4.9,14-1.43h0C388.91,198.2,388.27,204.46,384,208.71ZM516.48,326.1A35.49,35.49,0,1,1,552,290.62,35.48,35.48,0,0,1,516.48,326.1Zm6,261.89-54.82,54.82c-4.3,4.3-10.6,5-14.06,1.52h0c-3.47-3.46-2.79-9.76,1.52-14.07L527,558.35c6.48-23.42,19.7-46.62,39.36-66.29,20.39-20.38,44.58-33.86,68.86-40.06l2-.49a8.14,8.14,0,0,1,7.09,2.08h0c3.46,3.46,2.78,9.76-1.52,14.06Z"/><path class="cls-2" d="M119.4,761.77h24.25c11.94,0,28.87,1.25,43.84,13.9,10.88,9.09,20.32,24.24,20.32,45.63,0,25-12.3,38.32-20.85,45.63-10.87,9.27-22.28,13.73-43.49,13.73H119.4Zm13.19,106.41h11.59c9.45,0,22.46-1.07,34-10.7,8.92-7.48,16.05-19.25,16.05-36.18,0-28.52-20-47-50.09-47H132.59Z"/><path class="cls-2" d="M245.24,761.77V880.66H232.05V761.77Z"/><path class="cls-2" d="M341.5,847.15H290.87l-14.26,33.51H262l54.72-124.6L370,880.66H355.4Zm-5.17-12.48-20-47.59L296,834.67Z"/><path class="cls-2" d="M408.16,761.77c6.59,0,18.54.53,27.27,7.48,3.74,2.86,10.69,10.16,10.69,24.6,0,5.88-1.24,16.22-11.76,23.35,16.58,4.1,22.64,18.54,22.64,29.95a32.87,32.87,0,0,1-12.12,25.66c-9.45,7.49-20.32,7.85-28.52,7.85H386.77V761.77ZM400,814h10c6.95,0,23.35-1.42,23.35-19.78,0-19.61-19.25-20-23-20H400Zm0,54.19h15.15c7.66,0,15.15-.54,20.85-5a20,20,0,0,0,7.85-16.4,19.28,19.28,0,0,0-10.16-17.47c-4.46-2.49-10.7-3.56-20.14-3.56H400Z"/><path class="cls-2" d="M542.91,774.25H494.43v35.29h47.06V822H494.43v46.17h48.48v12.48H481.24V761.77h61.67Z"/><path class="cls-2" d="M596.39,774.25V880.66H583.2V774.25H554.32V761.77h70.94v12.48Z"/><path class="cls-2" d="M704.76,774.25H656.28v35.29h47.05V822H656.28v46.17h48.48v12.48H643.09V761.77h61.67Z"/><path class="cls-2" d="M124,963.21a18.33,18.33,0,0,0,5.16,2.66,16.68,16.68,0,0,0,5,.89,5.43,5.43,0,0,0,3.3-1,2,2,0,0,0,.65-1.69,1.92,1.92,0,0,0-.65-1.62,8.15,8.15,0,0,0-3.39-1.29l-3.39-.8a11.66,11.66,0,0,1-6.29-3.15,8.73,8.73,0,0,1-2.34-6.22,12.85,12.85,0,0,1,3.39-8.79c2.74-2.83,7.59-4.36,12.91-4.36a29.68,29.68,0,0,1,11.54,2.34l-4.35,8.23a17.85,17.85,0,0,0-6.78-1.78,5.49,5.49,0,0,0-3,.73,1.93,1.93,0,0,0-1.13,1.78,2.09,2.09,0,0,0,1.53,2c1.21.49,2.26.49,4.28,1.05l2.34.65a15.3,15.3,0,0,1,5.33,2.82,10.24,10.24,0,0,1,2.74,7.19,12,12,0,0,1-3.63,9c-4.2,4.19-10.33,4.52-13.32,4.52a26.67,26.67,0,0,1-14.53-4.2Z"/><path class="cls-2" d="M170.42,993.64H157.5V939.08h12.92V943a13.49,13.49,0,0,1,11.05-5.16,18,18,0,0,1,12.84,5.24,20.47,20.47,0,0,1-.33,28.25,17.29,17.29,0,0,1-12.34,5,15.38,15.38,0,0,1-11.22-4.68Zm2.1-42.37a8.76,8.76,0,0,0-2.51,6,8.67,8.67,0,0,0,2.51,5.73,8.25,8.25,0,0,0,5.81,2.42,7.82,7.82,0,0,0,5.73-2.42,8.54,8.54,0,0,0,2.5-5.73,8.8,8.8,0,0,0-2.5-6,7.79,7.79,0,0,0-5.73-2.43A8.22,8.22,0,0,0,172.52,951.27Z"/><path class="cls-2" d="M243.55,970.39c-4.77,4.69-10.34,6-16.15,6-5.24,0-11.06-1-16.06-6a18.6,18.6,0,0,1,0-26.55c3-2.91,8.23-6,16.06-6,8,0,13.16,3.14,16.15,6a18.63,18.63,0,0,1,0,26.55Zm-21.88-19.21a8,8,0,0,0,0,11.63,8.09,8.09,0,0,0,11.54,0,8,8,0,0,0,2.51-5.73,8.77,8.77,0,0,0-2.51-5.9,8.28,8.28,0,0,0-11.54,0Z"/><path class="cls-2" d="M256.54,939.08h12.92V945a11.56,11.56,0,0,1,5.08-5,14.1,14.1,0,0,1,6.7-1.46c.32,0,.89.08,2.58.16v12.19a11.41,11.41,0,0,0-5.57-1.29,8.45,8.45,0,0,0-5.89,1.94c-2.74,2.5-2.9,6.29-2.9,8.23v15.42H256.54Z"/><path class="cls-2" d="M305.05,949.65v25.51H292.14V949.65H288V939.08h4.12V927.21h12.91v11.87h7.35v10.57Z"/><path class="cls-3" d="M388,954.57a65.62,65.62,0,0,1-7.35,7.83l12,12.76H375.19l-4.68-4.93a30.19,30.19,0,0,1-18.08,6.14c-3.79,0-9.2-.57-13.23-4.52a14.53,14.53,0,0,1-4.36-10.66,14.25,14.25,0,0,1,4-10.33,24,24,0,0,1,8.8-5.24,35.54,35.54,0,0,1-3.15-4.28,12,12,0,0,1-1.85-6.62,14.51,14.51,0,0,1,4.11-9.85c4-4.11,9.36-4.76,12.67-4.76,6.54,0,10.42,2.42,12.51,4.44a14.32,14.32,0,0,1,4.28,10.09,11.73,11.73,0,0,1-3.71,8.63,19.92,19.92,0,0,1-6.3,4.2l6.78,7.1a65.24,65.24,0,0,0,7-7.66Zm-33.58-1.93c-.57.32-5.09,2.58-5.09,6.29a4.89,4.89,0,0,0,1.62,3.64,6.85,6.85,0,0,0,4.6,1.53,13.43,13.43,0,0,0,7.34-2.34Zm3-14.93a26.31,26.31,0,0,0,2.82,3.22,14.49,14.49,0,0,0,3.23-2.42,6,6,0,0,0,1.69-4,4.56,4.56,0,0,0-4.68-4.93,4.39,4.39,0,0,0-3.06,1.13,4.18,4.18,0,0,0-1.46,3.31A6.56,6.56,0,0,0,357.36,937.71Z"/><path class="cls-2" d="M415.88,939.08h12.91V945a11.61,11.61,0,0,1,5.08-5,14.1,14.1,0,0,1,6.7-1.46c.33,0,.89.08,2.59.16v12.19a11.44,11.44,0,0,0-5.57-1.29,8.42,8.42,0,0,0-5.89,1.94c-2.75,2.5-2.91,6.29-2.91,8.23v15.42H415.88Z"/><path class="cls-2" d="M487.15,959.5H460.27a9.11,9.11,0,0,0,2.26,6c.81.81,2.42,1.78,5.33,1.78a10.13,10.13,0,0,0,4.19-1,6,6,0,0,0,2.26-2.42h12.35a16.08,16.08,0,0,1-4.36,7.42c-2.66,2.59-6.86,5-14.69,5-4.76,0-10.49-1-14.93-5.49a18.9,18.9,0,0,1-5.32-13.64,19.29,19.29,0,0,1,5.4-14c3-2.9,7.67-5.24,14.77-5.24,4.2,0,9.61.89,13.89,4.92,5.08,4.84,5.73,11.14,5.73,15.18Zm-11.87-7.43a8.62,8.62,0,0,0-2.1-3.87,7.49,7.49,0,0,0-5.32-1.94,7,7,0,0,0-5.25,1.94,7.42,7.42,0,0,0-1.94,3.87Z"/><path class="cls-2" d="M521.86,974.35a19.23,19.23,0,0,1-9,2,19.93,19.93,0,0,1-14.21-5.49,18.88,18.88,0,0,1-5.57-13.48,19.64,19.64,0,0,1,5.81-14A20.82,20.82,0,0,1,513.46,938a18.47,18.47,0,0,1,8.4,2v10.81a11.54,11.54,0,0,0-6.7-2.34,8.47,8.47,0,0,0-6.3,2.5,8.82,8.82,0,0,0-2.5,6.22,9.26,9.26,0,0,0,2.26,6.05,8.77,8.77,0,0,0,6.62,2.75,9.78,9.78,0,0,0,6.62-2.43Z"/><path class="cls-2" d="M567.46,959.5H540.58a9.11,9.11,0,0,0,2.26,6c.81.81,2.42,1.78,5.33,1.78a10.2,10.2,0,0,0,4.2-1,6.13,6.13,0,0,0,2.26-2.42H567a16.26,16.26,0,0,1-4.36,7.42c-2.67,2.59-6.86,5-14.69,5-4.76,0-10.5-1-14.93-5.49a18.86,18.86,0,0,1-5.33-13.64,19.26,19.26,0,0,1,5.41-14c3-2.9,7.66-5.24,14.77-5.24,4.19,0,9.6.89,13.88,4.92,5.08,4.84,5.73,11.14,5.73,15.18Zm-11.86-7.43a8.72,8.72,0,0,0-2.1-3.87,7.52,7.52,0,0,0-5.33-1.94,7,7,0,0,0-5.25,1.94,7.41,7.41,0,0,0-1.93,3.87Z"/><path class="cls-2" d="M589.17,949.65v25.51H576.26V949.65h-4.12V939.08h4.12V927.21h12.91v11.87h7.35v10.57Z"/><path class="cls-2" d="M617.67,949.65v25.51H604.75V949.65h-4.11V939.08h4.11V927.21h12.92v11.87H625v10.57Z"/><path class="cls-2" d="M668.11,959.5H641.23a9.11,9.11,0,0,0,2.26,6c.81.81,2.43,1.78,5.33,1.78a10.2,10.2,0,0,0,4.2-1,6.06,6.06,0,0,0,2.26-2.42h12.35a16.26,16.26,0,0,1-4.36,7.42c-2.66,2.59-6.86,5-14.69,5-4.76,0-10.49-1-14.93-5.49a18.9,18.9,0,0,1-5.33-13.64,19.26,19.26,0,0,1,5.41-14c3-2.9,7.67-5.24,14.77-5.24,4.2,0,9.6.89,13.88,4.92,5.09,4.84,5.73,11.14,5.73,15.18Zm-11.86-7.43a8.72,8.72,0,0,0-2.1-3.87,7.52,7.52,0,0,0-5.33-1.94,6.93,6.93,0,0,0-5.24,1.94,7.34,7.34,0,0,0-1.94,3.87Z"/><path class="cls-2" d="M677.88,963.21a18.25,18.25,0,0,0,5.17,2.66,16.62,16.62,0,0,0,5,.89,5.46,5.46,0,0,0,3.31-1,2,2,0,0,0,.65-1.69,1.92,1.92,0,0,0-.65-1.62,8.26,8.26,0,0,0-3.39-1.29l-3.39-.8a11.65,11.65,0,0,1-6.3-3.15,8.73,8.73,0,0,1-2.34-6.22,12.89,12.89,0,0,1,3.39-8.79c2.75-2.83,7.59-4.36,12.92-4.36a29.77,29.77,0,0,1,11.54,2.34l-4.36,8.23a17.8,17.8,0,0,0-6.78-1.78,5.45,5.45,0,0,0-3,.73,1.93,1.93,0,0,0-1.13,1.78,2.08,2.08,0,0,0,1.53,2c1.21.49,2.26.49,4.28,1.05l2.34.65A15.34,15.34,0,0,1,702,955.7a10.2,10.2,0,0,1,2.75,7.19,12.09,12.09,0,0,1-3.63,9c-4.2,4.19-10.34,4.52-13.32,4.52a26.67,26.67,0,0,1-14.53-4.2Z"/></svg>